<svg width="20" height="19" viewBox="0 0 20 19" fill="none" xmlns="http://www.w3.org/2000/svg">
<path fill-rule="evenodd" clip-rule="evenodd" d="M8 3.75C8 4.16421 7.66421 4.5 7.25 4.5L0.75 4.5C0.335786 4.5 2.93554e-08 4.16421 6.55671e-08 3.75C1.01779e-07 3.33579 0.335786 3 0.75 3L7.25 3C7.66421 3 8 3.33579 8 3.75Z" fill="white"/>
<path fill-rule="evenodd" clip-rule="evenodd" d="M-6.55668e-07 18L0 3L1.5 3L1.5 18L-6.55668e-07 18Z" fill="white"/>
<path fill-rule="evenodd" clip-rule="evenodd" d="M16 19H0V17.5H16V19Z" fill="white"/>
<path fill-rule="evenodd" clip-rule="evenodd" d="M15.25 19C14.8358 19 14.5 18.6642 14.5 18.25L14.5 11.75C14.5 11.3358 14.8358 11 15.25 11C15.6642 11 16 11.3358 16 11.75L16 18.25C16 18.6642 15.6642 19 15.25 19Z" fill="white"/>
<path fill-rule="evenodd" clip-rule="evenodd" d="M15.75 -3.27834e-08C16.1642 -1.46776e-08 16.5 0.335786 16.5 0.75L16.5 7.25C16.5 7.66421 16.1642 8 15.75 8C15.3358 8 15 7.66421 15 7.25L15 0.75C15 0.335786 15.3358 -5.08892e-08 15.75 -3.27834e-08Z" fill="white"/>
<path fill-rule="evenodd" clip-rule="evenodd" d="M20 3.75C20 4.16421 19.6642 4.5 19.25 4.5L12.75 4.5C12.3358 4.5 12 4.16421 12 3.75C12 3.33579 12.3358 3 12.75 3L19.25 3C19.6642 3 20 3.33579 20 3.75Z" fill="white"/>
</svg>
