<svg width="150" height="72" fill="none" xmlns="http://www.w3.org/2000/svg"><path d="M46.257 47.074h9.504v3.105H51.24V72h-4.983V47.075zm15.139 15.568l.854-12.463h.286l.854 12.463h-1.994zM55.878 72h4.879l.461-6.62h2.35l.464 6.62h4.877l-2.6-24.926h-7.832L55.877 72zm20.167-8.724v4.699c0 .633.49.817.777.817.47 0 .797-.388.797-.817v-5.802c0-.777-.143-1.635-2.003-1.635h-2.022V57.8h2.104c1.41 0 1.92-.327 1.92-1.86v-4.944c0-.428-.326-.817-.796-.817-.286 0-.777.164-.777.817v4.066H71.06v-3.534c0-1.737.204-4.454 3.698-4.454h4.127c3.494 0 3.719 2.717 3.719 4.454v3.984c0 2.717-1.9 3.453-3.392 3.392v.245c3.351-.082 3.392 2.492 3.392 3.37v5.027c0 1.757-.225 4.454-3.719 4.454h-4.127c-3.493 0-3.698-2.697-3.698-4.454v-4.27h4.985zm9.828-16.202h11.544V72H92.43V50.18h-1.573V72h-4.985V47.074zm19.798 13.709V50.18h.654c.531 0 .919.45.919 1.247v8.11c0 .798-.388 1.247-.919 1.247h-.654zM100.686 72h4.985v-8.48h2.86c3.474 0 3.698-2.696 3.698-4.453v-7.54c0-1.736-.224-4.453-3.698-4.453h-7.845V72zm21.371-4.025c0 .429-.327.817-.797.817-.286 0-.776-.184-.776-.817V50.997c0-.654.49-.818.776-.818.47 0 .797.389.797.817v16.979zm-6.559-.43c0 1.758.225 4.455 3.698 4.455h4.148c3.473 0 3.698-2.697 3.698-4.454V51.528c0-1.737-.225-4.454-3.698-4.454h-4.148c-3.473 0-3.698 2.717-3.698 4.454v16.018zm27.766-20.471h6.497V72h-4.985V56.37h-.184L142.018 72h-3.984l-2.554-15.63h-.184V72h-4.985V47.074h6.476l3.249 17.53 3.228-17.53zM39.796 12.994C38.27 6.314 34.446.88 33.918 0c-.833 1.246-3.884 6.048-5.434 11.36-1.694 5.945-1.943 11.217-1.36 16.386.581 5.19 2.774 10.522 2.774 10.522 1.164 2.779 2.909 5.782 4.045 7.253 1.665-2.166 5.492-8.622 6.685-17.04.664-4.699.693-8.806-.832-15.487zm-5.878 30.852c-.75-1.41-1.914-4.087-2.024-8.255-.029-4.004 1.579-7.457 2.049-8.172.419.715 1.804 3.718 1.97 7.825.112 4.005-1.22 7.171-1.995 8.602zm5.435-19.512c-.057 2.554-.362 5.25-.75 6.865.14-2.779-.194-6.681-.831-9.746-.638-3.044-2.442-8.152-3.882-10.502-1.33 2.248-2.969 6.66-3.827 10.481-.862 3.821-.887 8.459-.887 9.848-.229-1.164-.8-5.353-.64-9.541.136-3.453.945-7.029 1.388-8.663 1.692-5.455 3.606-8.949 3.966-9.5.36.551 2.77 4.862 4.02 9.377 1.245 4.516 1.496 8.847 1.443 11.38z" fill="#0079C2"/><path d="M36.507 47.074H24.904v7.784c.01 0 .018-.02.028-.02a6.997 6.997 0 019.903 0c2.734 2.717 2.734 7.15 0 9.889-.012.02-.024.02-.036.04-.015 0-.029.02-.041.041a13.973 13.973 0 01-9.854 4.046c-3.58 0-7.16-1.349-9.889-4.087-4.814-4.801-5.384-12.258-1.714-17.693a14.156 14.156 0 011.714-2.084c2.73-2.738 6.31-4.087 9.889-4.087V22.19C11.149 22.189 0 33.324 0 47.074S11.15 71.98 24.904 71.98c7.171 0 13.631-3.045 18.175-7.887v-17.02h-6.572z" fill="#0079C2"/></svg>