<svg width="182" height="50" fill="none" xmlns="http://www.w3.org/2000/svg"><path d="M48.035 1.266H0v48.008h48.035V1.266z" fill="#ED1A3A"/><path d="M40.277 6.047c-1.104 0-1.94.732-2.356 1.612l-6.049 9.952c-.419.92-.725 1.954-.725 2.639 0 .611.084 1.152.308 1.65l6.543 15.62H12.592c-.915 0-1.67-.917-1.67-1.765V8.847c-.192-3.679-5.482-3.677-5.599.115l.116 28.559c0 3.105 2.402 5.592 5.483 5.592h34.64l-8.444-21.592c-.233-.804-.337-1.533.231-2.491l5.586-9.079c.079-.19.193-.99.193-1.22-.11-1.648-1.403-2.756-2.851-2.684zm-13.714.013c-1.359.01-2.716.947-2.716 2.787v19.255c0 2.796-3.763 2.566-3.763 0V8.847c0-3.679-5.444-3.679-5.444 0v19.41c0 4.438 3.316 7.39 7.274 7.39 4.066 0 7.371-2.952 7.371-7.39V8.846c0-1.876-1.364-2.796-2.722-2.787z" fill="#fff"/><path d="M57.445 6.907v12.702c0 3.174-.323 4.94-2.91 4.94-.483 0-.806 0-1.29-.175v5.467c.967.355 1.614.355 2.423.355 7.27 0 7.594-5.47 7.594-8.648v-9.171h4.2V29.84h5.813V6.907h-15.83zm17.77 0l7.917 16.584-2.907 6.35h6.3l9.37-22.934h-6.3L86.2 16.609l-4.04-9.702h-6.946zM97.672 29.84h5.816v-9.879l5.977 9.88h7.43l-8.237-11.82 8.077-11.114h-6.947l-6.3 9.702V6.907h-5.816V29.84z" fill="#000"/><path d="M126.428 30.548c7.753 0 11.306-6 11.306-12.175 0-5.997-3.553-11.997-11.306-11.997-7.594 0-11.147 6-11.147 11.997 0 6.175 3.553 12.175 11.147 12.175zm0-5.47c-2.587 0-5.17-2.295-5.17-6.705s2.583-6.527 5.17-6.527c2.746 0 5.33 2.117 5.33 6.527s-2.584 6.705-5.33 6.705zm14.217-18.171v22.934h5.653l8.077-13.76v13.76h5.656V6.907h-5.656l-8.077 13.762V6.907h-5.653zm9.853-1.235c2.423 0 4.846-.882 5.979-3.53l-3.393-1.41c-.486 1.765-1.94 1.94-2.586 1.94-.484 0-2.1-.175-2.423-1.94l-3.391 1.41c.967 2.648 3.554 3.53 5.814 3.53zm15.672 1.235v12.702c0 3.174-.326 4.94-2.91 4.94-.483 0-.807 0-1.293-.175v5.467c.97.355 1.617.355 2.423.355 7.27 0 7.593-5.47 7.593-8.648v-9.171h4.2V29.84H182V6.907h-15.83zM53.292 42.711h.819v-4.255h4.78v4.255h.818V34.37h-.819v3.416h-4.78V34.37h-.818v8.341zm8.498 0h4.483v-.67H62.61v-3.666h3.519v-.67H62.61v-2.663h3.664v-.672h-4.482v8.341zm9.878 0h.81v-1.147h.34c2.697 0 3.813-1.596 3.813-3.268 0-1.957-1.448-3.254-3.813-3.254h-.34V34.04h-.81v1.002h-.33c-2.379 0-3.824 1.297-3.824 3.254 0 1.672 1.116 3.268 3.825 3.268h.329v1.147zm.81-6.999c2.705.035 3.3 1.3 3.3 2.584 0 2.004-1.332 2.525-3.3 2.595v-5.179zm-.81 5.179c-1.97-.07-3.3-.591-3.3-2.595 0-1.285.591-2.549 3.3-2.584v5.179zm7.919 1.82h.786v-7.669h2.22v-.672H77.37v.672h2.217v7.67zm3.973 0h.92l2.22-3.664h.705v3.664h.82V34.37h-1.924c-2.526 0-2.89 1.674-2.89 2.414 0 1.41 1.104 2.263 2.403 2.217l-2.254 3.71zm3.845-4.337h-1.183c-.67 0-2-.078-2-1.671 0-1.547 1.409-1.66 2.079-1.66h1.104v3.331zm2.915 4.337h.819v-4.255h4.78v4.255h.818V34.37h-.819v3.416h-4.78V34.37h-.818v8.341zm7.61.001h.822l1.148-2.71h3.515l1.151 2.71h.818l-3.743-8.558-3.71 8.557zm2.267-3.367l1.444-3.414 1.48 3.414h-2.924zm6.133 3.366h.921l2.219-3.664h.705v3.664h.819V34.37h-1.923c-2.525 0-2.889 1.674-2.889 2.414 0 1.41 1.104 2.263 2.4 2.217l-2.252 3.71zm3.845-4.337h-1.182c-.673 0-2.004-.078-2.004-1.671 0-1.547 1.412-1.66 2.082-1.66h1.104v3.331zm5.68 4.337h.819v-4.04l3.742 4.04h1.069l-4.039-4.302 3.972-4.04h-1.002l-3.742 3.892V34.37h-.819v8.341zm10.91.263c2.482 0 4.518-1.786 4.518-4.416 0-2.627-2.036-4.404-4.518-4.404-2.446 0-4.482 1.777-4.482 4.404 0 2.63 2.036 4.416 4.482 4.416zm0-.705c-2.036 0-3.629-1.526-3.629-3.71 0-2.185 1.593-3.743 3.629-3.743 2.039 0 3.664 1.558 3.664 3.742 0 2.185-1.625 3.71-3.664 3.71zm5.645.442h.787l.772-6.157 3.072 6.533 3.038-6.533.822 6.157h.737l-1.148-8.67-3.449 7.453-3.483-7.453-1.148 8.67zm10.765-8.341v8.341h.818v-7.669h4.78v7.67h.819V34.37h-6.417zm7.614 8.342h.818l1.148-2.71h3.518l1.148 2.71h.818l-3.742-8.558-3.708 8.557zm2.263-3.367l1.445-3.414 1.479 3.414h-2.924zm6.349 3.366h.819v-4.255h4.779v4.255h.822V34.37h-.822v3.416h-4.779V34.37h-.819v8.341zm8.499-8.341v8.717l5.715-6.976v6.6h.807v-8.67l-5.7 6.929v-6.6h-.822zm8.365 8.341h.92l2.22-3.664h.705v3.664h.821V34.37h-1.922c-2.528 0-2.893 1.674-2.893 2.414 0 1.41 1.104 2.263 2.403 2.217l-2.254 3.71zm3.845-4.337h-1.183c-.67 0-2.001-.078-2.001-1.671 0-1.547 1.41-1.66 2.083-1.66h1.101v3.331z" fill="#000"/></svg>