<svg width="79" height="97" fill="none" xmlns="http://www.w3.org/2000/svg"><path fill-rule="evenodd" clip-rule="evenodd" d="M18.927 87.781c1.566 0 2.837 1.427 2.837 3.184 0 1.758-1.271 3.185-2.837 3.185-1.567 0-2.838-1.427-2.838-3.184 0-1.758 1.271-3.185 2.838-3.185zm0-2.425c3.12 0 5.65 2.512 5.65 5.61 0 3.097-2.53 5.61-5.65 5.61-3.121 0-5.652-2.513-5.652-5.61 0-3.098 2.531-5.61 5.652-5.61zm13.216 2.425c.968 0 1.88.434 2.392 1.266l1.856-1.78a5.656 5.656 0 00-4.248-1.911c-3.12 0-5.651 2.512-5.651 5.61 0 3.097 2.53 5.61 5.651 5.61a5.656 5.656 0 004.319-1.994l-1.929-1.651c-.515.805-1.44 1.219-2.39 1.219-1.566 0-2.837-1.427-2.837-3.184 0-1.758 1.27-3.185 2.837-3.185zm18.68 3.92h8.118c.03-.24.046-.486.046-.735 0-3.098-2.44-5.61-5.45-5.61-3.01 0-5.451 2.512-5.451 5.61 0 3.097 2.44 5.61 5.45 5.61 1.717 0 3.69-.292 4.69-1.569l-1.241-1.796c-.623.895-2.27 1.144-3.32 1.144-1.39 0-2.553-1.136-2.841-2.653zm.062-1.743c.369-1.38 1.474-2.382 2.78-2.382 1.304 0 2.41 1.002 2.778 2.382h-5.558zm-12.784-4.346h8.736v2.407h-3.02v8.3H41.12v-8.3h-3.019v-2.407zm25.351 5.187l-3.677-5.187h3.249l2.2 3.314 2.201-3.314h3.249l-3.677 5.187 3.843 5.52h-3.139l-2.476-3.584-2.477 3.584h-3.14l3.844-5.52zm1.773-1.371l-.013.021h.025l-.012-.021zM6.713 84.206a2.122 2.122 0 010 4.243H3.137v-4.243h3.576zm-6.539-2.52h7.15a4.642 4.642 0 010 9.282H3.136v5.351H.174V81.686zM9.047 9.047H32.7L23.654 0H0v23.654l9.047 9.047V9.047zm28.538 0H61.24V32.7l9.047-9.047V0H46.632l-9.047 9.047zM61.24 37.585V61.24H37.585l9.047 9.047h23.655V46.632l-9.047-9.047zM32.7 61.24H9.047V37.585L0 46.632v23.655h23.654l9.047-9.047z" fill="#000"/><path d="M72.811.383h2.263V.87h-.887v2.71h-.488V.87h-.888V.383zm4.296 2.38l1.06-2.38h.544V3.58h-.489v-2.1l-.938 2.1h-.354l-.938-2.1v2.1h-.488V.383h.543l1.06 2.38z" fill="#000"/></svg>