<svg width="145" height="52" fill="none" xmlns="http://www.w3.org/2000/svg"><path fill-rule="evenodd" clip-rule="evenodd" d="M9.87 0L7.401 6.763h34.217L44.087 0H9.87zM6.166 10.144l-2.47 6.761h34.217l2.47-6.761H6.166zM2.469 20.287L0 27.05h34.217l2.467-6.762H2.47z" fill="#009FDF"/><mask id="a" maskUnits="userSpaceOnUse" x="51" y="10" width="94" height="42"><path d="M51.336 51.704H145v-41.43H51.336v41.43z" fill="#fff"/></mask><g mask="url(#a)"><path fill-rule="evenodd" clip-rule="evenodd" d="M72.743 29.627v.143c1.563.573 3.057 1.577 3.84 2.222 2.417 2.007 3.485 4.659 3.485 8.1 0 5.663-2.988 9.749-7.895 11.04-1.494.429-3.057.573-5.975.573H51.336V10.274h13.157c2.703 0 4.551.143 6.186.572 4.766 1.29 7.895 4.589 7.895 9.82 0 2.796-.996 5.163-2.631 6.739-.711.716-1.707 1.577-3.2 2.222zm-13.157 4.372v10.895h5.69c1.705 0 3.27-.142 4.41-1.218 1.136-1.076 1.634-2.437 1.634-4.23 0-1.36-.356-2.651-1.067-3.583C69.044 34.358 67.55 34 64.991 34h-5.405zm-.072-7.168h4.623c1.422 0 2.133 0 2.844-.215 1.921-.574 3.13-2.293 3.13-4.66 0-2.794-1.28-4.014-3.13-4.586-.783-.215-1.564-.287-3.13-.287h-4.337v9.748zm32.928 24.874v-34.48H80.566v-6.951h33l-2.347 6.952h-10.527v34.48h-8.25zm23.683 0V10.274h26.742l-2.346 6.952h-16.216V26.4h6.614c5.334 0 8.108 1.29 10.028 2.939 1.494 1.29 4.053 4.157 4.053 9.821 0 5.59-2.631 8.672-4.836 10.25-2.559 1.79-5.262 2.294-10.739 2.294h-13.3zm8.18-6.953h6.188c2.346 0 3.768-.574 4.764-1.865.498-.644 1.209-1.792 1.209-3.942 0-2.15-.711-3.656-2.133-4.731-.853-.645-1.992-1.002-3.912-1.002h-6.116v11.54z" fill="#0A2973"/></g></svg>