<svg width="703" height="872" fill="none" xmlns="http://www.w3.org/2000/svg"><path d="M636.253 861.714c-47.025-16.517-133.362-77.673-133.362-94.466 0-2.871-10.721-23.594-23.823-46.05-14.638-25.088-31.303-70.576-43.222-117.978-17.491-69.562-19.329-88.356-18.689-191.117.612-98.391-.766-113.969-10.086-113.969-17.699 0-137.361 28.132-150.482 35.378-6.676 3.686-16.713 6.703-22.305 6.703-20.946 0-17.447 13.623 6.418 24.986l24.724 11.772-3.625 39.482c-1.993 21.715-5.432 48.161-7.642 58.769-4.754 22.819-5.994 22.651 57.399 7.777 54.909-12.884 73.225-10.309 68.045 9.567-2.633 10.102-14.992 14.797-56.318 21.394-67.767 10.819-74.636 16.51-69.264 57.393 2.303 17.525 6.124 73.587 8.49 124.582l4.302 92.717-18.547 8.479c-37.742 17.255-66.942-8.236-86.486-75.498-10.83-37.272-10.767-37.761 4.844-37.761 17.25 0 21.505-12.581 26.578-78.582l4.202-54.673-30.744.533c-16.908.294-41.562 4.456-54.786 9.25-25.53 9.256-37.135 25.284-18.306 25.284 32.794 0 33.734 120.059 1.11 141.915-16.056 10.757-39.07 4.989-50.612-12.684-11.238-17.21-11.042-19.58 4.215-50.847 34.324-70.34 31.773-89.47-11.572-86.786-54.047 3.346-47.312-10.243 12.94-26.108 85.736-22.577 82.048-20.221 60.691-38.761-18.981-16.477-40.828-52.651-40.828-67.603 0-5.815 9.415-7.021 31.302-4.011 44.069 6.061 59.184 17.549 64.186 48.781 3.117 19.468 7.3 26.045 15.551 24.451 13.536-2.615 16.125-34.997 6.878-86.027-9.799-54.078-16.127-57.467-81.126-43.453-64.565 13.921-66.675 14.055-63.341 4.019 2.952-8.887 14.864-13.553 176.835-69.28 65.356-22.486 140.436-49.07 166.844-59.075 50.274-19.047 106.826-23.745 130.809-10.867 13.331 7.159 13.267 7.834-2.819 29.808-9.052 12.365-21.69 34.01-28.083 48.098-11.906 26.235-26.494 110.375-20.81 120.023 1.739 2.954 4.85 25.046 6.911 49.095 4.434 51.724 43.651 175.762 67.611 213.844 16.92 26.894 62.988 71.845 73.63 71.845 11.667 0 42.78-48.388 42.78-66.533 0-22.444 15.458-9.007 31.496 27.378 17.99 40.817 19.773 86.255 4.494 114.55-9.939 18.406-15.029 18.79-56.407 4.256zM369.335 697.265c-22.664-12.336-93.46-80.418-93.725-90.131-.059-2.153-2.733-8.069-5.943-13.148-9.468-14.981-1.17-16.711 42.063-8.771 54.283 9.969 93.762 37.883 106.867 75.562 8.339 23.974 8.492 30.865.892 40.054-11.571 13.988-18.857 13.471-50.154-3.566zm-85.08-281.656c2.042-16.394 5.738-32.08 8.213-34.857 4.275-4.798 75.204 10.815 82.531 18.167 7.629 7.654-6.209 16.965-37.94 25.529-18.36 4.955-36.371 11.7-40.023 14.989-13.081 11.779-16.437 5.521-12.781-23.828zM146.402 242.47c5.767-3.378 37.222-14.127 69.9-23.886 32.678-9.76 78.287-25.761 101.354-35.559 42.85-18.201 68.8-21.524 107.471-13.764 32.166 6.455 26.628 21.373-11.358 30.598-18.262 4.434-58.367 14.003-89.123 21.263-30.756 7.26-66.908 16.512-80.338 20.559-30.06 9.058-113.164 9.728-97.906.789zM106.21 185.7c-19.917-8.033-19.754-9.938 3.495-40.881C154.383 85.354 183.66 22.53 179.607-5.18L176.562-26l33.281 4.43c18.304 2.436 43.216 7.905 55.359 12.152 19.209 6.719 21.5 10.114 17.632 26.134-5.387 22.311-46.321 92.054-54.029 92.054-3.032 0-5.513 4.794-5.513 10.654 0 14.607 22.286 8.424 105.674-29.319 70.612-31.96 111.597-38.299 135.28-20.923 23.313 17.104 8.587 32.575-31.008 32.575-19.328 0-53.24 6.033-75.361 13.407-22.121 7.374-66.626 17.299-98.9 22.056-35.215 5.19-63.259 13.243-70.131 20.139-10.136 10.169-58.08 36.293-64.47 35.128-1.342-.244-9.516-3.299-18.166-6.787z" fill="#fff" fill-opacity=".08"/></svg>