<svg width="79" height="44" fill="none" xmlns="http://www.w3.org/2000/svg"><path fill-rule="evenodd" clip-rule="evenodd" d="M1.802 11.832l.051 5.804A17.267 17.267 0 016.301 9.53a6.19 6.19 0 01.591-.561l-5.09 2.863zm26.405 24.031c.591 0 1.054.435 1.08.998 0 .434-.283.818-.669.971l-9.102 5.344a.907.907 0 01-.95.025L9.9 38.139l-.025-.025L.49 32.847a.9.9 0 01-.463-.792l.077-10.048-.102-10.635a.908.908 0 01.461-.843l8.794-4.96 9.23-5.421a.909.909 0 01.951-.026l8.665 5.062h.025c.335.18.54.486.54.87 0 .562-.437 1.022-1.028 1.022a1.15 1.15 0 01-.668-.204 16.67 16.67 0 00-3.934-1.509 16.737 16.737 0 00-4.371-.485c-4.654.102-8.82 2.045-11.801 5.139a16.738 16.738 0 00-4.705 11.939A16.648 16.648 0 007.33 33.691a16.935 16.935 0 0012.006 4.678 16.554 16.554 0 004.346-.664 17.961 17.961 0 004.01-1.739l.026-.025c.128-.026.308-.077.489-.077zM1.879 25.766l-.051 5.804 5.116 2.863-.129-.128c-2.39-2.3-4.139-5.241-4.936-8.539zm12.11 12.68l5.013 2.94 5.04-2.967-.181.052a17.038 17.038 0 01-4.55.69 16.837 16.837 0 01-5.323-.716zM23.99 4.877l-5.04-2.941-5.039 2.965a19.034 19.034 0 014.705-.741c1.541-.023 3.08.15 4.577.511.283.076.54.127.797.205v.001z" fill="#0B7572"/><path fill-rule="evenodd" clip-rule="evenodd" d="M24.042 12.522c.437.23.591.792.36 1.227-.231.434-.797.588-1.235.358a8.792 8.792 0 00-2.107-.818 9.388 9.388 0 00-2.237-.255 8.682 8.682 0 00-6.068 2.633c-1.542 1.584-2.442 3.757-2.417 6.135a8.589 8.589 0 002.648 6.034 8.605 8.605 0 006.171 2.403c.515 0 .926.384.926.895s-.386.92-.9.92A10.52 10.52 0 0111.7 29.14a10.333 10.333 0 01-3.215-7.31 10.398 10.398 0 012.932-7.44 10.446 10.446 0 017.353-3.197 9.808 9.808 0 012.725.308c.875.255 1.748.587 2.546 1.022z" fill="#0B7572"/><path fill-rule="evenodd" clip-rule="evenodd" d="M11.932 11.703c.179-.126.41-.076.54.103.128.179.076.409-.104.537a11.285 11.285 0 00-3.624 4.168 11.606 11.606 0 00-1.235 5.369c.052 3.144 1.415 5.982 3.523 8.002l.025.025a11.328 11.328 0 008.15 3.145 11.5 11.5 0 002.957-.46 11.368 11.368 0 002.751-1.202c.18-.102.438-.052.54.127.103.18.051.434-.129.538-.918.55-1.903.98-2.93 1.278a12.01 12.01 0 01-3.163.486 12.233 12.233 0 01-8.716-3.375l-.025-.025a11.986 11.986 0 01-3.754-8.539c-.052-2.02.437-3.99 1.311-5.753a12.794 12.794 0 013.883-4.424z" fill="#0B7572"/><path fill-rule="evenodd" clip-rule="evenodd" d="M15.404 22.058c-.025 0-.051-.179-.051-.383 0-.205.026-.383.051-.383h3.188v-3.529c0-.025.18-.05.386-.05.206 0 .386.025.386.05v3.529h3.187c.027 0 .053.178.053.383 0 .204-.027.383-.052.383h-3.188v3.528c0 .026-.18.052-.386.052-.205 0-.386-.026-.386-.052V22.06h-3.188zm28.408-8.77h-11.69c-.443 0-.708.145-.708.7v14.493c0 .555.266.7.709.7h2.42c.473 0 .708-.145.708-.7V16.676h5.432v11.805c0 .555.265.7.708.7h2.421c.443 0 .709-.145.709-.7V13.988c0-.555-.266-.7-.709-.7zm15.527 17.15c0 .556.266.702.71.702h2.006c.444 0 .709-.146.709-.701v-4.15c0-.438-.148-.7-.71-.7h-1.179v-11.6c0-.556-.265-.702-.708-.702h-9.359c-.443 0-.708.146-.708.701l-.768 9.993c-.059.905-.295 1.607-1.623 1.607-.562 0-.709.263-.709.702v4.149c0 .555.266.7.709.7h2.037c.443 0 .708-.145.708-.7v-1.52h8.915v1.52h-.03zm-6.257-6.253l.619-7.626h3.483v9.204h-5.077c.59-.205.915-.702.975-1.578zm23.644-3.244c.207-.087 1.771-.876 1.771-3.301 0-2.25-1.711-4.354-5.668-4.354h-6.818c-.562 0-.708.263-.708.701V28.48c0 .438.147.7.708.7h7.173c3.395 0 5.816-1.576 5.816-4.644a3.875 3.875 0 00-2.273-3.595zm-3.513 4.793H69.11v-9.058h3.719c1.27 0 2.037.263 2.037 1.345 0 .934-.62 1.43-2.037 1.43h-.325c-.562 0-.708.264-.708.702v1.841c0 .439.147.702.708.702h.561c1.18 0 2.037.35 2.037 1.46 0 1.11-.679 1.579-1.89 1.579v-.001z" fill="#0B7572"/></svg>